<svg xmlns="http://www.w3.org/2000/svg" xmlns:xlink="http://www.w3.org/1999/xlink" width="400" zoomAndPan="magnify" viewBox="0 0 300 149.999998" height="200" preserveAspectRatio="xMidYMid meet" version="1.0"><defs><g/><clipPath id="eb5f8e4a0d"><path d="M 23 38 L 93 38 L 93 111 L 23 111 Z M 23 38 " clip-rule="nonzero"/></clipPath><clipPath id="539d2b5c45"><path d="M 10.949219 48.011719 L 80.425781 29.121094 L 100.300781 102.21875 L 30.824219 121.109375 Z M 10.949219 48.011719 " clip-rule="nonzero"/></clipPath><clipPath id="5216e6d46c"><path d="M 10.949219 48.011719 L 80.425781 29.121094 L 100.300781 102.21875 L 30.824219 121.109375 Z M 10.949219 48.011719 " clip-rule="nonzero"/></clipPath></defs><g clip-path="url(#eb5f8e4a0d)"><g clip-path="url(#539d2b5c45)"><g clip-path="url(#5216e6d46c)"><path fill="#3b74ec" d="M 82.816406 47.164062 C 78.550781 41.851562 72.242188 42.332031 69.5 48.8125 C 67.773438 52.878906 68.332031 59.085938 71.625 63.496094 C 75.683594 68.917969 82.542969 68.316406 85.046875 61.863281 C 86.632812 57.769531 86.34375 51.550781 82.816406 47.164062 Z M 25.101562 59.246094 C 21.058594 65.382812 28.214844 75.613281 38.992188 76.730469 C 48.699219 77.738281 51.714844 66.285156 40.484375 58.910156 C 36.246094 56.128906 28.222656 54.492188 25.101562 59.246094 Z M 28.210938 95.460938 C 32.253906 98.753906 38.128906 99.726562 42.835938 98.070312 C 49.320312 95.785156 50.585938 89.195312 45.316406 84.789062 C 40.753906 80.972656 34.503906 80.863281 30.691406 82.207031 C 24.417969 84.421875 22.878906 91.113281 28.210938 95.460938 Z M 91.527344 75.882812 C 88.453125 71.046875 78.875 69.515625 73.679688 69.316406 C 71.542969 69.238281 68.597656 69.355469 66.4375 69.730469 C 58.433594 71.105469 55.039062 74.046875 53.566406 82.4375 C 53.109375 85.039062 52.925781 87.277344 52.980469 89.71875 C 52.996094 90.378906 52.996094 90.875 53.070312 91.542969 L 53.355469 95.171875 C 53.734375 99.65625 56.257812 109.242188 61.042969 110.304688 C 66.175781 111.449219 70.667969 104.5625 73.371094 99.96875 C 74.589844 97.890625 76.488281 94.425781 78.300781 92.726562 C 82.335938 88.921875 87.980469 90.554688 91.414062 83.0625 C 92.417969 80.894531 92.882812 78.027344 91.527344 75.882812 Z M 45.28125 40.941406 C 44.257812 42.375 43.863281 43.476562 43.605469 44.890625 C 43.300781 46.628906 43.445312 47.273438 43.523438 48.769531 C 43.601562 50.273438 43.792969 51.167969 44.269531 52.652344 C 47.234375 61.792969 56.453125 66.582031 60.910156 60.234375 C 63.835938 56.070312 62.671875 49.210938 59.917969 44.71875 C 58.234375 41.957031 55.769531 39.601562 52.867188 38.644531 C 50.558594 37.890625 47.351562 38.078125 45.28125 40.941406 Z M 45.28125 40.941406 " fill-opacity="1" fill-rule="evenodd"/></g></g></g><g fill="#1e2b4d" fill-opacity="1"><g transform="translate(94.055637, 98.732204)"><g><path d="M 23.4375 3.914062 L 34.398438 3.914062 L 34.398438 -12.058594 L 36.070312 -12.058594 L 36.070312 3.914062 L 47.554688 3.914062 L 47.554688 -41.707031 L 36.070312 -41.707031 L 36.070312 -27.71875 L 34.398438 -27.71875 L 34.398438 -41.707031 L 23.4375 -41.707031 Z M 21.765625 -40.976562 L 0.78125 -40.976562 L 0.78125 -26.882812 L 9.5 -26.882812 L 9.5 3.394531 L 21.765625 3.394531 Z M 21.765625 -40.976562 "/></g></g></g><g fill="#1e2b4d" fill-opacity="1"><g transform="translate(142.597214, 98.732204)"><g><path d="M 49.484375 -24.953125 L 49.484375 -37.324219 L 44.527344 -37.324219 L 44.527344 -41.761719 L 30.328125 -41.761719 L 30.328125 -21.089844 L 44.527344 -21.089844 L 44.527344 -24.953125 Z M 30.695312 -12.996094 C 23.90625 -11.378906 12.894531 -9.8125 2.503906 -9.867188 L 2.503906 3.757812 L 45.046875 3.757812 L 45.046875 -7.621094 C 39.410156 -4.960938 27.25 -3.027344 16.808594 -2.402344 L 16.808594 -3.96875 C 27.25 -4.488281 38.941406 -6.421875 44.996094 -9.1875 L 44.996094 -19.3125 L 2.503906 -19.3125 L 2.503906 -11.378906 C 11.171875 -11.222656 23.699219 -12.632812 30.695312 -14.511719 Z M 28.449219 -41.5 L 16.390625 -41.5 L 16.390625 -38 L 14.355469 -38 L 14.355469 -41.5 L 1.304688 -41.5 L 1.304688 -21.089844 L 28.449219 -21.089844 Z M 14.355469 -31.371094 L 16.390625 -31.371094 L 16.390625 -27.769531 L 14.355469 -27.769531 Z M 14.355469 -31.371094 "/></g></g></g><g fill="#3b74ec" fill-opacity="1"><g transform="translate(192.434538, 98.732204)"><g><path d="M 17.488281 -26.414062 C 12.683594 -23.90625 8.976562 -23.074219 1.097656 -22.289062 L 1.097656 3.394531 L 29.179688 3.394531 L 29.179688 -12.421875 L 31.371094 -12.421875 L 31.371094 3.914062 L 44.632812 3.914062 L 44.632812 -41.707031 L 31.371094 -41.707031 L 31.371094 -27.5625 L 29.179688 -27.5625 L 29.179688 -40.976562 L 1.097656 -40.976562 L 1.097656 -24.117188 C 9.65625 -24.636719 13.675781 -26.414062 17.488281 -28.238281 Z M 12.214844 -8.976562 L 12.214844 -10.699219 C 17.277344 -10.910156 21.765625 -12.058594 25.839844 -14.355469 L 25.839844 -12.527344 C 21.714844 -10.335938 18.164062 -9.394531 12.214844 -8.976562 Z M 12.214844 -8.976562 "/></g></g></g><g fill="#3b74ec" fill-opacity="1"><g transform="translate(238.366359, 98.732204)"><g><path d="M 0.367188 -8.925781 L 0.367188 3.652344 L 46.613281 3.652344 L 46.613281 -8.925781 Z M 32.574219 -41.238281 L 14.355469 -41.238281 L 14.355469 -28.605469 C 14.355469 -26.101562 13.988281 -24.796875 10.804688 -24.796875 L 0.941406 -24.796875 L 0.941406 -11.066406 L 18.269531 -11.066406 C 21.246094 -11.066406 22.5 -12.738281 22.5 -15.972656 L 22.5 -22.445312 L 24.429688 -22.445312 L 24.429688 -15.972656 C 24.429688 -12.738281 25.683594 -11.066406 28.65625 -11.066406 L 45.9375 -11.066406 L 45.9375 -24.796875 L 36.121094 -24.796875 C 32.9375 -24.796875 32.574219 -26.101562 32.574219 -28.605469 Z M 32.574219 -41.238281 "/></g></g></g><g fill="#2e2e2e" fill-opacity="1"><g transform="translate(100.131179, 116.961783)"><g><path d="M 4.984375 -5.46875 L 2.703125 -5.46875 L 2.703125 -0.875 L 4.984375 -0.875 C 6.015625 -0.875 6.738281 -1.050781 7.15625 -1.40625 C 7.582031 -1.769531 7.796875 -2.367188 7.796875 -3.203125 C 7.796875 -4.003906 7.578125 -4.582031 7.140625 -4.9375 C 6.710938 -5.289062 5.992188 -5.46875 4.984375 -5.46875 Z M 5.140625 -6.34375 C 5.722656 -6.34375 6.207031 -6.300781 6.59375 -6.21875 C 6.976562 -6.144531 7.300781 -6.019531 7.5625 -5.84375 C 7.96875 -5.570312 8.285156 -5.203125 8.515625 -4.734375 C 8.753906 -4.273438 8.875 -3.765625 8.875 -3.203125 C 8.875 -2.617188 8.757812 -2.085938 8.53125 -1.609375 C 8.300781 -1.140625 7.976562 -0.765625 7.5625 -0.484375 C 7.300781 -0.316406 6.976562 -0.191406 6.59375 -0.109375 C 6.207031 -0.0351562 5.722656 0 5.140625 0 L 1.640625 0 L 1.640625 -6.34375 Z M 5.140625 -6.34375 "/></g></g></g><g fill="#2e2e2e" fill-opacity="1"><g transform="translate(112.488049, 116.961783)"><g><path d="M 1.203125 0 L 1.203125 -5.203125 L 6.453125 -5.203125 L 6.453125 -4.4375 L 2.1875 -4.4375 L 2.1875 -3.09375 L 4.75 -3.09375 L 4.75 -2.328125 L 2.1875 -2.328125 L 2.1875 -0.765625 L 6.5 -0.765625 L 6.5 0 Z M 1.203125 0 "/></g></g></g><g fill="#2e2e2e" fill-opacity="1"><g transform="translate(122.056317, 116.961783)"><g><path d="M 3.265625 0 L 0.265625 -5.203125 L 1.328125 -5.203125 L 3.65625 -1.015625 L 5.890625 -5.203125 L 6.859375 -5.203125 L 4.015625 0 Z M 3.265625 0 "/></g></g></g><g fill="#2e2e2e" fill-opacity="1"><g transform="translate(131.624586, 116.961783)"><g><path d="M 1.203125 0 L 1.203125 -5.203125 L 6.453125 -5.203125 L 6.453125 -4.4375 L 2.1875 -4.4375 L 2.1875 -3.09375 L 4.75 -3.09375 L 4.75 -2.328125 L 2.1875 -2.328125 L 2.1875 -0.765625 L 6.5 -0.765625 L 6.5 0 Z M 1.203125 0 "/></g></g></g><g fill="#2e2e2e" fill-opacity="1"><g transform="translate(141.192854, 116.961783)"><g><path d="M 1.203125 0 L 1.203125 -5.203125 L 2.1875 -5.203125 L 2.1875 -0.78125 L 6.234375 -0.78125 L 6.234375 0 Z M 1.203125 0 "/></g></g></g><g fill="#2e2e2e" fill-opacity="1"><g transform="translate(150.197402, 116.961783)"><g><path d="M 2.0625 -0.78125 L 6.40625 -0.78125 L 6.40625 -4.4375 L 2.0625 -4.4375 Z M 1.078125 -3.96875 C 1.078125 -4.445312 1.164062 -4.769531 1.34375 -4.9375 C 1.53125 -5.113281 1.867188 -5.203125 2.359375 -5.203125 L 6.109375 -5.203125 C 6.609375 -5.203125 6.945312 -5.113281 7.125 -4.9375 C 7.300781 -4.769531 7.390625 -4.445312 7.390625 -3.96875 L 7.390625 -1.234375 C 7.390625 -0.753906 7.300781 -0.425781 7.125 -0.25 C 6.945312 -0.0820312 6.609375 0 6.109375 0 L 2.359375 0 C 1.859375 0 1.519531 -0.0820312 1.34375 -0.25 C 1.164062 -0.425781 1.078125 -0.753906 1.078125 -1.234375 Z M 1.078125 -3.96875 "/></g></g></g><g fill="#2e2e2e" fill-opacity="1"><g transform="translate(161.102998, 116.961783)"><g><path d="M 5.15625 -4.4375 L 2.1875 -4.4375 L 2.1875 -2.796875 L 5.15625 -2.796875 C 5.375 -2.796875 5.523438 -2.832031 5.609375 -2.90625 C 5.703125 -2.976562 5.75 -3.109375 5.75 -3.296875 L 5.75 -3.953125 C 5.75 -4.128906 5.707031 -4.253906 5.625 -4.328125 C 5.539062 -4.398438 5.382812 -4.4375 5.15625 -4.4375 Z M 1.203125 0 L 1.203125 -5.203125 L 5.59375 -5.203125 C 6 -5.203125 6.289062 -5.125 6.46875 -4.96875 C 6.644531 -4.8125 6.734375 -4.554688 6.734375 -4.203125 L 6.734375 -3.03125 C 6.734375 -2.675781 6.644531 -2.421875 6.46875 -2.265625 C 6.289062 -2.109375 6 -2.03125 5.59375 -2.03125 L 2.1875 -2.03125 L 2.1875 0 Z M 1.203125 0 "/></g></g></g><g fill="#2e2e2e" fill-opacity="1"><g transform="translate(170.977111, 116.961783)"><g><path d="M 1.203125 0 L 1.203125 -5.203125 L 6.453125 -5.203125 L 6.453125 -4.4375 L 2.1875 -4.4375 L 2.1875 -3.09375 L 4.75 -3.09375 L 4.75 -2.328125 L 2.1875 -2.328125 L 2.1875 -0.765625 L 6.5 -0.765625 L 6.5 0 Z M 1.203125 0 "/></g></g></g><g fill="#2e2e2e" fill-opacity="1"><g transform="translate(180.545377, 116.961783)"><g><path d="M 4.953125 -4.4375 L 2.1875 -4.4375 L 2.1875 -2.765625 L 4.953125 -2.765625 C 5.179688 -2.765625 5.332031 -2.800781 5.40625 -2.875 C 5.476562 -2.945312 5.515625 -3.085938 5.515625 -3.296875 L 5.515625 -3.921875 C 5.515625 -4.109375 5.472656 -4.238281 5.390625 -4.3125 C 5.316406 -4.394531 5.171875 -4.4375 4.953125 -4.4375 Z M 1.203125 0 L 1.203125 -5.203125 L 5.390625 -5.203125 C 5.773438 -5.203125 6.050781 -5.125 6.21875 -4.96875 C 6.394531 -4.8125 6.484375 -4.554688 6.484375 -4.203125 L 6.484375 -3.03125 C 6.484375 -2.675781 6.394531 -2.421875 6.21875 -2.265625 C 6.050781 -2.109375 5.773438 -2.03125 5.390625 -2.03125 L 4.703125 -2.03125 L 7 0 L 5.6875 0 L 3.609375 -2.03125 L 2.1875 -2.03125 L 2.1875 0 Z M 1.203125 0 "/></g></g></g><g fill="#2e2e2e" fill-opacity="1"><g transform="translate(190.503448, 116.961783)"><g/></g></g><g fill="#2e2e2e" fill-opacity="1"><g transform="translate(197.528989, 116.961783)"><g><path d="M 7.015625 -5.46875 L 2.609375 -5.46875 L 2.609375 -0.875 L 7.015625 -0.875 L 7.015625 -2.46875 L 8.078125 -2.25 L 8.078125 -1.5 C 8.078125 -0.914062 7.972656 -0.519531 7.765625 -0.3125 C 7.554688 -0.101562 7.164062 0 6.59375 0 L 3.046875 0 C 2.472656 0 2.082031 -0.101562 1.875 -0.3125 C 1.664062 -0.519531 1.5625 -0.914062 1.5625 -1.5 L 1.5625 -4.84375 C 1.5625 -5.414062 1.664062 -5.804688 1.875 -6.015625 C 2.082031 -6.234375 2.472656 -6.34375 3.046875 -6.34375 L 6.59375 -6.34375 C 7.164062 -6.34375 7.554688 -6.238281 7.765625 -6.03125 C 7.972656 -5.820312 8.078125 -5.425781 8.078125 -4.84375 L 8.078125 -4.234375 L 7.015625 -4.046875 Z M 7.015625 -5.46875 "/></g></g></g><g fill="#2e2e2e" fill-opacity="1"><g transform="translate(209.172215, 116.961783)"><g><path d="M 2.0625 -0.78125 L 6.40625 -0.78125 L 6.40625 -4.4375 L 2.0625 -4.4375 Z M 1.078125 -3.96875 C 1.078125 -4.445312 1.164062 -4.769531 1.34375 -4.9375 C 1.53125 -5.113281 1.867188 -5.203125 2.359375 -5.203125 L 6.109375 -5.203125 C 6.609375 -5.203125 6.945312 -5.113281 7.125 -4.9375 C 7.300781 -4.769531 7.390625 -4.445312 7.390625 -3.96875 L 7.390625 -1.234375 C 7.390625 -0.753906 7.300781 -0.425781 7.125 -0.25 C 6.945312 -0.0820312 6.609375 0 6.109375 0 L 2.359375 0 C 1.859375 0 1.519531 -0.0820312 1.34375 -0.25 C 1.164062 -0.425781 1.078125 -0.753906 1.078125 -1.234375 Z M 1.078125 -3.96875 "/></g></g></g><g fill="#2e2e2e" fill-opacity="1"><g transform="translate(220.07781, 116.961783)"><g><path d="M 1.984375 -4.234375 C 1.984375 -4.160156 1.988281 -4.054688 2 -3.921875 C 2.007812 -3.710938 2.015625 -3.578125 2.015625 -3.515625 L 2.015625 0 L 1.203125 0 L 1.203125 -5.203125 L 2.015625 -5.203125 L 4.609375 -1.828125 L 6.984375 -5.203125 L 7.890625 -5.203125 L 7.890625 0 L 6.984375 0 L 6.984375 -3.515625 C 6.984375 -3.640625 6.988281 -3.757812 7 -3.875 C 7.007812 -4 7.023438 -4.117188 7.046875 -4.234375 C 6.992188 -4.066406 6.9375 -3.921875 6.875 -3.796875 C 6.8125 -3.671875 6.753906 -3.578125 6.703125 -3.515625 L 4.703125 -0.828125 L 4.4375 -0.828125 L 2.375 -3.484375 C 2.300781 -3.578125 2.226562 -3.6875 2.15625 -3.8125 C 2.09375 -3.9375 2.035156 -4.078125 1.984375 -4.234375 Z M 1.984375 -4.234375 "/></g></g></g><g fill="#2e2e2e" fill-opacity="1"><g transform="translate(231.625092, 116.961783)"><g><path d="M 1.984375 -4.234375 C 1.984375 -4.160156 1.988281 -4.054688 2 -3.921875 C 2.007812 -3.710938 2.015625 -3.578125 2.015625 -3.515625 L 2.015625 0 L 1.203125 0 L 1.203125 -5.203125 L 2.015625 -5.203125 L 4.609375 -1.828125 L 6.984375 -5.203125 L 7.890625 -5.203125 L 7.890625 0 L 6.984375 0 L 6.984375 -3.515625 C 6.984375 -3.640625 6.988281 -3.757812 7 -3.875 C 7.007812 -4 7.023438 -4.117188 7.046875 -4.234375 C 6.992188 -4.066406 6.9375 -3.921875 6.875 -3.796875 C 6.8125 -3.671875 6.753906 -3.578125 6.703125 -3.515625 L 4.703125 -0.828125 L 4.4375 -0.828125 L 2.375 -3.484375 C 2.300781 -3.578125 2.226562 -3.6875 2.15625 -3.8125 C 2.09375 -3.9375 2.035156 -4.078125 1.984375 -4.234375 Z M 1.984375 -4.234375 "/></g></g></g><g fill="#2e2e2e" fill-opacity="1"><g transform="translate(243.172366, 116.961783)"><g><path d="M 2.1875 -5.203125 L 2.1875 -0.78125 L 5.984375 -0.78125 L 5.984375 -5.203125 L 6.984375 -5.203125 L 6.984375 -1.234375 C 6.984375 -0.753906 6.894531 -0.425781 6.71875 -0.25 C 6.539062 -0.0820312 6.203125 0 5.703125 0 L 2.484375 0 C 1.984375 0 1.644531 -0.0820312 1.46875 -0.25 C 1.289062 -0.425781 1.203125 -0.753906 1.203125 -1.234375 L 1.203125 -5.203125 Z M 2.1875 -5.203125 "/></g></g></g><g fill="#2e2e2e" fill-opacity="1"><g transform="translate(253.796103, 116.961783)"><g><path d="M 2.03125 -4.15625 C 2.0625 -4.007812 2.082031 -3.859375 2.09375 -3.703125 C 2.101562 -3.546875 2.109375 -3.390625 2.109375 -3.234375 L 2.109375 0 L 1.203125 0 L 1.203125 -5.203125 L 1.953125 -5.203125 L 5.78125 -1.8125 C 5.882812 -1.707031 5.988281 -1.597656 6.09375 -1.484375 C 6.195312 -1.367188 6.300781 -1.238281 6.40625 -1.09375 C 6.375 -1.25 6.347656 -1.40625 6.328125 -1.5625 C 6.316406 -1.726562 6.3125 -1.894531 6.3125 -2.0625 L 6.3125 -5.203125 L 7.21875 -5.203125 L 7.21875 0 L 6.546875 0 L 2.65625 -3.453125 C 2.519531 -3.578125 2.398438 -3.695312 2.296875 -3.8125 C 2.203125 -3.925781 2.113281 -4.039062 2.03125 -4.15625 Z M 2.03125 -4.15625 "/></g></g></g><g fill="#2e2e2e" fill-opacity="1"><g transform="translate(264.653723, 116.961783)"><g><path d="M 2.15625 0 L 1.1875 0 L 1.1875 -5.1875 L 2.15625 -5.1875 Z M 2.15625 0 "/></g></g></g><g fill="#2e2e2e" fill-opacity="1"><g transform="translate(270.425892, 116.961783)"><g><path d="M 3.703125 -4.4375 L 3.703125 0 L 2.734375 0 L 2.734375 -4.4375 L 0.265625 -4.4375 L 0.265625 -5.203125 L 6.171875 -5.203125 L 6.171875 -4.4375 Z M 3.703125 -4.4375 "/></g></g></g><g fill="#2e2e2e" fill-opacity="1"><g transform="translate(279.304504, 116.961783)"><g><path d="M 2.96875 0 L 2.96875 -2.265625 L 0.265625 -5.203125 L 1.453125 -5.203125 L 3.53125 -2.953125 L 5.5 -5.203125 L 6.65625 -5.203125 L 3.953125 -2.265625 L 3.953125 0 Z M 2.96875 0 "/></g></g></g><g fill="#2e2e2e" fill-opacity="1"><g transform="translate(288.660678, 116.961783)"><g/></g></g></svg>